<?xml version="1.0" encoding="utf-8"?>
<!-- Generator: Adobe Illustrator 22.0.0, SVG Export Plug-In . SVG Version: 6.00 Build 0)  -->
<svg version="1.1" id="Layer_1" xmlns="http://www.w3.org/2000/svg" xmlns:xlink="http://www.w3.org/1999/xlink" x="0px" y="0px"
	 viewBox="0 0 1366 768" style="enable-background:new 0 0 1366 768;" xml:space="preserve">
<style type="text/css">
	.st0{fill:none;}
	.st1{fill:#1D2A38;}
	.st2{fill:#FF6600;}
</style>
<path class="st0" d="M417.3,589c-2.1,0-3.8,0.6-5.3,1.9c-1.5,1.3-2.3,3.3-2.3,6v41.3c0,2.7,0.8,4.7,2.3,6c1.5,1.3,3.3,1.9,5.3,1.9
	c2,0,3.8-0.6,5.3-1.9c1.5-1.3,2.3-3.3,2.3-6v-41.3c0-2.7-0.8-4.7-2.3-6C421.1,589.6,419.3,589,417.3,589z"/>
<polygon class="st0" points="682.9,601 677.4,629.3 688.6,629.3 683.1,601 "/>
<path class="st0" d="M689.2,592.8c-0.6-1.2-1.5-2.2-2.6-2.9c-1.2-0.7-2.9-1-5.1-1h-5.8v26.6h5.4c2.3,0,4-0.3,5.3-1
	c1.2-0.7,2.2-1.6,2.7-2.7c0.6-1.1,0.9-2.5,1-4.1c0.1-1.6,0.2-3.4,0.2-5.4c0-1.8,0-3.6-0.1-5.2C690.1,595.5,689.8,594.1,689.2,592.8z
	"/>
<path class="st0" d="M857.5,692.4c0-1.2-0.4-2-1.1-2.6c-0.6-0.5-1.4-0.7-2.5-0.7h-5.4v6.9h5.2c1.3,0,2.3-0.4,2.9-1.1
	C857.2,694.3,857.5,693.4,857.5,692.4z"/>
<g>
	<path class="st0" d="M688.9,124.4l21.6,37.5l71,123c4.2,0,8.3-0.1,12.4-0.1c7.9,0,15.9,0.1,23.8,0.2L688.9,61.9L548.3,305.5
		c13.1-2.3,26.3-4.4,39.7-6.4l79.3-137.3L688.9,124.4z"/>
	<path class="st0" d="M843.7,452.9l-48.6-84.2c-110.1,16.7-204.7,46.3-272.8,84.2H843.7z"/>
	<path class="st1" d="M691.5,174.4l78.3,135.7c8.8-0.2,17.7-0.2,26.7-0.2c22.9,0,45.6,0.5,67.8,1.5L691.5,12L501.6,340.9
		c33-7.5,68-13.8,104.5-18.7L691.5,174.4z M550.9,305.5L691.5,61.9L820.3,285c-7.9-0.1-15.9-0.2-23.8-0.2c-4.1,0-8.2,0-12.4,0.1
		l-71-123l-21.6-37.5l-21.6,37.5l-79.3,137.3C577.2,301.1,564,303.2,550.9,305.5z"/>
	<path class="st2" d="M521.2,759c-98-43-157.8-100.7-157.8-163.9c0-21.1,6.6-41.5,19.1-61h556.6L837.7,358.5
		c38.6-3.2,78.5-4.9,119.4-4.9c55.1,0,108.5,3.1,159.1,8.8c-2.9-0.9-5.9-1.8-8.9-2.8c3,0.9,6,1.8,8.9,2.8c3.4,0.4,6.8,0.8,10.2,1.2
		c-8.9-2.3-18-4.4-27.2-6.5c0,0,0,0,0,0c-82.7-18.4-177.8-29-279.1-29.1c-0.6,0-1.2,0-1.8,0c-23,0-45.8,0.5-68.1,1.6
		c-7.4,0.4-14.8,0.8-22.2,1.2h0h0c-70.5,4.4-136.9,14-196.5,27.6c-5.2,1.2-10.3,2.4-15.3,3.6c-35.4,8.7-68.2,18.9-98,30.3
		c-110,42.2-178.5,101.7-178.5,167.5C239.6,644.5,352.5,718.5,521.2,759z M749.9,368.7l48.6,84.2H477.1
		C545.2,414.9,639.8,385.4,749.9,368.7z"/>
</g>
</svg>
