<?xml version="1.0" encoding="utf-8"?>
<!-- Generator: Adobe Illustrator 22.0.0, SVG Export Plug-In . SVG Version: 6.00 Build 0)  -->
<svg version="1.1" id="Layer_1" xmlns="http://www.w3.org/2000/svg" xmlns:xlink="http://www.w3.org/1999/xlink" x="0px" y="0px"
	 viewBox="0 0 1366 768" style="enable-background:new 0 0 1366 768;" xml:space="preserve">
<style type="text/css">
	.st0{fill:none;}
	.st1{fill:#1D2A38;}
	.st2{fill:#FF6600;}
</style>
<g>
	<path class="st0" d="M687.5,692.4c0-1.2-0.4-2-1.1-2.6c-0.6-0.5-1.4-0.7-2.5-0.7h-5.4v6.9h5.2c1.3,0,2.3-0.4,2.9-1.1
		C687.2,694.3,687.5,693.4,687.5,692.4z"/>
	<g>
		<path class="st0" d="M687.5,101.4l16.6,28.8l54.6,94.5c3.2,0,6.4,0,9.5,0c6.1,0,12.2,0,18.3,0.1l-99-171.4L579.5,240.6
			c10-1.8,20.2-3.4,30.5-4.9l60.9-105.5L687.5,101.4z"/>
		<path class="st0" d="M806.5,353.8l-37.4-64.7c-84.6,12.8-157.3,35.5-209.6,64.7H806.5z"/>
		<path class="st1" d="M689.6,139.8L749.8,244c6.8-0.1,13.6-0.2,20.5-0.2c17.6,0,35,0.4,52.1,1.2L689.6,15L543.6,267.8
			c25.3-5.8,52.2-10.6,80.3-14.4L689.6,139.8z M581.5,240.6L689.6,53.4l99,171.4c-6.1-0.1-12.2-0.1-18.3-0.1c-3.1,0-6.3,0-9.5,0
			l-54.6-94.5l-16.6-28.8l-16.6,28.8L612,235.7C601.7,237.1,591.5,238.8,581.5,240.6z"/>
		<path class="st2" d="M558.7,589c-75.3-33.1-121.3-77.3-121.3-126c0-16.2,5.1-31.9,14.7-46.9h427.7l-77.9-135
			c29.6-2.5,60.3-3.8,91.8-3.8c42.3,0,83.4,2.3,122.3,6.7c-2.2-0.7-4.6-1.4-6.8-2.1c2.3,0.7,4.6,1.4,6.8,2.1
			c2.6,0.3,5.2,0.6,7.8,0.9c-6.9-1.7-13.8-3.4-20.9-5c0,0,0,0,0,0c-63.5-14.2-136.6-22.3-214.4-22.4c-0.5,0-0.9,0-1.4,0
			c-17.7,0-35.2,0.4-52.3,1.2c-5.7,0.3-11.4,0.6-17.1,0.9h0h0c-54.2,3.4-105.2,10.7-151,21.2c-4,0.9-7.9,1.8-11.8,2.8
			c-27.2,6.7-52.4,14.5-75.3,23.3c-84.5,32.4-137.1,78.1-137.1,128.7C342.3,501,429,557.9,558.7,589z M734.4,289.1l37.4,64.7H524.8
			C577.1,324.6,649.8,301.9,734.4,289.1z"/>
	</g>
	<g>
		<path class="st1" d="M390.4,622v30.9h12.7c1.9,0,3.4-0.2,4.5-0.7c1.2-0.4,2.1-1.1,2.7-2.1c0.7-0.9,1.1-2.1,1.4-3.6
			c0.3-1.4,0.4-3.1,0.5-5.1h1.6v27.3h-1.6c-0.2-1.9-0.4-3.5-0.6-4.7c-0.2-1.2-0.4-2.1-0.6-2.6c-0.3-0.7-0.6-1.3-1-1.8
			c-0.4-0.5-0.9-1-1.5-1.4c-0.6-0.4-1.4-0.7-2.3-0.9c-0.9-0.2-1.9-0.3-3.1-0.3h-12.7v25.8c0,3.4,0.1,5.5,0.3,6.4
			c0.1,0.3,0.3,0.7,0.4,1c0.2,0.3,0.4,0.6,0.7,0.8c0.3,0.2,0.8,0.4,1.3,0.5c0.5,0.1,1.2,0.2,2,0.2h9.8c1.7,0,3.1-0.1,4.2-0.2
			c1.1-0.1,2.1-0.4,2.9-0.7c0.8-0.3,1.6-0.8,2.2-1.4c0.6-0.6,1.3-1.4,2-2.3c0.9-1.2,1.8-2.6,2.7-4.4c0.9-1.8,1.8-3.9,2.7-6.4h1.7
			l-5,19.6H374v-2.1h2.1c0.5,0,1.1-0.1,1.7-0.2c0.6-0.2,1.2-0.4,1.7-0.8c0.5-0.3,1-0.8,1.4-1.3s0.7-1.1,0.9-1.8
			c0.3-1.2,0.5-3.7,0.5-7.6v-50.9c0-4.9-0.4-8-1.1-9.2c-1-1.5-2.7-2.3-5.1-2.3H374v-2.1h44.6v17.1h-1c-0.3-2.1-0.6-3.8-0.9-5.1
			c-0.3-1.3-0.7-2.5-1.1-3.3c-0.4-0.9-0.9-1.6-1.4-2.1s-1.1-1-1.8-1.4c-1.2-0.6-3.2-0.9-6-0.9H390.4z"/>
		<path class="st1" d="M446.6,665.1h22.1v8.7h-22.1V665.1z"/>
		<path class="st1" d="M564.3,669.8h-22.4l-3.9,12.4c-1,3-1.5,5.3-1.5,6.8c0,0.6,0.1,1.2,0.2,1.7c0.2,0.5,0.5,1,1,1.4
			c0.5,0.4,1.2,0.8,2.1,1.1c0.9,0.3,2,0.5,3.5,0.7v2.1H525v-2.1c2.4-0.6,4-1.3,4.7-2.3c0.7-0.9,1.5-2.3,2.3-4.2
			c0.8-1.9,1.6-4.2,2.5-7.1l20.4-64.4h1.5l20.2,65.1c0.8,2.7,1.6,4.9,2.3,6.5c0.7,1.6,1.4,2.9,2.2,3.8s1.5,1.5,2.4,1.9
			c0.9,0.3,1.9,0.6,3.1,0.6v2.1h-22.9v-2.1c1.1-0.1,2.1-0.3,2.9-0.5c0.8-0.3,1.4-0.6,1.8-1c0.4-0.4,0.8-0.9,0.9-1.4
			c0.2-0.5,0.3-1.1,0.3-1.8c0-0.8-0.1-1.9-0.4-3.3c-0.3-1.3-0.7-2.9-1.3-4.8L564.3,669.8z M563.1,665.5l-9.8-31.6l-10.1,31.6H563.1z
			"/>
		<path class="st1" d="M658.7,615.9l1.5,24.7h-1.5c-1.5-6.1-3.4-10.8-5.9-13.9c-3.5-4.5-7.9-6.8-13.3-6.8c-7.4,0-13,3.9-16.8,11.8
			c-3.2,6.7-4.8,14.6-4.8,23.8c0,7.5,1.1,14.3,3.2,20.4c0.9,2.7,2.1,5.2,3.4,7.4c1.3,2.2,2.8,4.1,4.4,5.6c1.6,1.5,3.4,2.7,5.3,3.6
			c1.9,0.8,3.9,1.3,6,1.3c2.1,0,4.2-0.4,6.2-1.1c2-0.7,3.9-1.8,5.8-3.2v-22.6c0-2-0.1-3.6-0.2-4.8c-0.1-1.2-0.3-2.2-0.5-2.9
			c-0.2-0.7-0.5-1.3-0.9-1.7c-0.4-0.4-0.8-0.7-1.2-1c-0.9-0.7-2.5-1-4.9-1v-2.2h22.4v2.2h-1.1c-1,0-1.8,0.1-2.5,0.4
			c-0.7,0.3-1.2,0.8-1.7,1.6c-0.4,0.8-0.8,2-1,3.5s-0.3,3.5-0.3,5.9v24c-1.7,1.2-3.4,2.3-5,3.1c-1.6,0.9-3.2,1.6-4.8,2.1
			c-1.6,0.6-3.3,1-5,1.2c-1.7,0.3-3.6,0.4-5.5,0.4c-11.2,0-19.7-4.8-25.5-14.5c-4.4-7.3-6.5-15.7-6.5-25.2c0-2.7,0.2-5.3,0.6-8
			c0.4-2.7,1-5.3,1.7-7.8c0.7-2.5,1.7-5,2.7-7.3s2.3-4.5,3.6-6.4c2.8-4.3,6.1-7.5,9.8-9.5c3.7-2,7.7-3.1,12.2-3.1
			c1.3,0,2.5,0.1,3.5,0.2c1,0.1,2,0.3,2.9,0.6c0.9,0.3,1.9,0.7,3,1.2c1,0.5,2.3,1.1,3.7,1.8c1.6,0.8,2.6,1.2,3.2,1.2
			c0.5,0,1-0.3,1.4-1c0.4-0.7,0.6-2,0.7-4H658.7z"/>
		<path class="st1" d="M703.9,622v30.9h12.7c1.8,0,3.4-0.2,4.5-0.7c1.2-0.4,2.1-1.1,2.7-2.1c0.7-0.9,1.1-2.1,1.4-3.6
			c0.3-1.4,0.4-3.1,0.5-5.1h1.6v27.3h-1.6c-0.2-1.9-0.4-3.5-0.6-4.7c-0.2-1.2-0.4-2.1-0.6-2.6c-0.3-0.7-0.6-1.3-1-1.8
			s-0.9-1-1.5-1.4c-0.6-0.4-1.4-0.7-2.3-0.9s-1.9-0.3-3.1-0.3h-12.7v25.8c0,3.4,0.1,5.5,0.3,6.4c0.1,0.3,0.3,0.7,0.4,1
			c0.2,0.3,0.4,0.6,0.7,0.8c0.3,0.2,0.8,0.4,1.3,0.5c0.5,0.1,1.2,0.2,2,0.2h9.8c1.7,0,3.1-0.1,4.2-0.2c1.1-0.1,2.1-0.4,2.9-0.7
			s1.6-0.8,2.2-1.4c0.6-0.6,1.3-1.4,2-2.3c0.9-1.2,1.8-2.6,2.7-4.4c0.9-1.8,1.8-3.9,2.7-6.4h1.7l-5,19.6h-44.6v-2.1h2.1
			c0.5,0,1.1-0.1,1.7-0.2c0.6-0.2,1.2-0.4,1.7-0.8c0.5-0.3,1-0.8,1.4-1.3c0.4-0.5,0.7-1.1,0.9-1.8c0.3-1.2,0.5-3.7,0.5-7.6v-50.9
			c0-4.9-0.4-8-1.1-9.2c-1-1.5-2.7-2.3-5.1-2.3h-2.1v-2.1h44.6v17.1h-1c-0.3-2.1-0.6-3.8-0.9-5.1c-0.3-1.3-0.7-2.5-1.1-3.3
			c-0.4-0.9-0.9-1.6-1.4-2.1c-0.5-0.5-1.1-1-1.8-1.4c-1.2-0.6-3.2-0.9-6-0.9H703.9z"/>
		<path class="st1" d="M755.5,617.7h15.7l35.4,58.7v-45.1c0-4.8-0.4-7.8-1.2-9c-1.1-1.6-2.8-2.4-5-2.4h-2v-2.1h20.2v2.1h-2.1
			c-2.4,0-4.2,1-5.2,3c-0.6,1.2-0.9,4-0.9,8.4v66h-1.5l-38.2-63v48.2c0,4.8,0.4,7.8,1.2,9c1.1,1.6,2.7,2.4,5,2.4h2.1v2.1h-20.2v-2.1
			h2c2.5,0,4.2-1,5.3-3c0.6-1.2,0.9-4,0.9-8.4V628c-0.9-1.3-1.6-2.4-2.1-3.2c-0.6-0.8-1.1-1.5-1.6-2c-0.5-0.5-1.1-0.9-1.7-1.3
			s-1.3-0.7-2.2-1.1c-0.8-0.3-2.1-0.5-3.8-0.5V617.7z"/>
		<path class="st1" d="M838.8,696v-2.1h2.2c2.4,0,4.2-1.1,5.2-3.2c0.6-1.2,0.9-4.1,0.9-8.5v-50.6c0-4.9-0.4-8-1.2-9.2
			c-1.1-1.7-2.8-2.5-5-2.5h-2.2v-2.1h23.6c8.7,0,15.2,1.3,19.7,4c4.5,2.7,8.2,7.1,10.9,13.3c2.8,6.2,4.1,13.3,4.1,21.5
			c0,5.8-0.7,11.1-2.1,15.9c-1.4,4.8-3.4,9-6.2,12.5c-2.7,3.5-6.1,6.2-10.2,8.2s-8.8,2.9-14.1,2.9H838.8z M855.3,690.3
			c3.6,1.1,6.6,1.6,9.1,1.6c3.3,0,6.3-0.8,9.1-2.5c2.8-1.6,5.2-4,7.3-7c2.1-3,3.7-6.7,4.8-11c1.2-4.3,1.8-9.1,1.8-14.5
			c0-5.4-0.6-10.2-1.7-14.5s-2.8-8-4.8-11c-2.1-3-4.5-5.3-7.4-7c-2.9-1.6-6-2.4-9.4-2.4c-1.3,0-2.7,0.1-4.1,0.4
			c-1.5,0.3-3,0.7-4.7,1.2V690.3z"/>
		<path class="st1" d="M958,669.8h-22.4l-3.9,12.4c-1,3-1.5,5.3-1.5,6.8c0,0.6,0.1,1.2,0.2,1.7c0.2,0.5,0.5,1,1,1.4
			c0.5,0.4,1.2,0.8,2.1,1.1c0.9,0.3,2,0.5,3.5,0.7v2.1h-18.2v-2.1c2.4-0.6,4-1.3,4.7-2.3s1.5-2.3,2.3-4.2c0.8-1.9,1.6-4.2,2.5-7.1
			l20.4-64.4h1.5l20.2,65.1c0.8,2.7,1.6,4.9,2.3,6.5c0.7,1.6,1.4,2.9,2.2,3.8c0.7,0.9,1.5,1.5,2.4,1.9c0.9,0.3,1.9,0.6,3.1,0.6v2.1
			h-22.9v-2.1c1.1-0.1,2.1-0.3,2.9-0.5c0.8-0.3,1.4-0.6,1.8-1c0.4-0.4,0.8-0.9,0.9-1.4c0.2-0.5,0.3-1.1,0.3-1.8
			c0-0.8-0.1-1.9-0.4-3.3c-0.3-1.3-0.7-2.9-1.3-4.8L958,669.8z M956.8,665.5l-9.8-31.6l-10.1,31.6H956.8z"/>
	</g>
	<rect x="424.9" y="622.6" class="st0" width="111.1" height="1.5"/>
</g>
</svg>
